<svg width="40" height="41" viewBox="0 0 40 41" fill="none" xmlns="http://www.w3.org/2000/svg">
<rect y="0.504883" width="40" height="40" rx="20" fill="#F6F8FB"/>
<g clip-path="url(#clip0_2077_160)">
<path d="M20 12.5049C19.8011 12.5049 19.6103 12.5839 19.4697 12.7246C19.329 12.8652 19.25 13.056 19.25 13.2549C19.25 13.4538 19.329 13.6446 19.4697 13.7852C19.6103 13.9259 19.8011 14.0049 20 14.0049C21.7239 14.0049 23.3772 14.6897 24.5962 15.9087C25.8152 17.1277 26.5 18.781 26.5 20.5049C26.5 22.2288 25.8152 23.8821 24.5962 25.1011C23.3772 26.3201 21.7239 27.0049 20 27.0049C19.8011 27.0049 19.6103 27.0839 19.4697 27.2246C19.329 27.3652 19.25 27.556 19.25 27.7549C19.25 27.9538 19.329 28.1446 19.4697 28.2852C19.6103 28.4259 19.8011 28.5049 20 28.5049C22.1217 28.5049 24.1566 27.662 25.6569 26.1617C27.1571 24.6614 28 22.6266 28 20.5049C28 18.3832 27.1571 16.3483 25.6569 14.848C24.1566 13.3477 22.1217 12.5049 20 12.5049Z" fill="#788BA5"/>
<path d="M12.75 19.7547C12.5511 19.7547 12.3603 19.8337 12.2197 19.9744C12.079 20.1151 12 20.3058 12 20.5047C12 20.7036 12.079 20.8944 12.2197 21.0351C12.3603 21.1757 12.5511 21.2547 12.75 21.2547H19.44L17.72 22.9747C17.6463 23.0434 17.5872 23.1262 17.5462 23.2182C17.5052 23.3102 17.4832 23.4095 17.4814 23.5102C17.4796 23.6109 17.4982 23.7109 17.5359 23.8043C17.5736 23.8977 17.6297 23.9825 17.701 24.0538C17.7722 24.125 17.857 24.1811 17.9504 24.2189C18.0438 24.2566 18.1438 24.2751 18.2445 24.2733C18.3452 24.2715 18.4445 24.2495 18.5365 24.2085C18.6285 24.1675 18.7113 24.1084 18.78 24.0347L21.78 21.0347C21.9205 20.8941 21.9993 20.7035 21.9993 20.5047C21.9993 20.306 21.9205 20.1154 21.78 19.9747L18.78 16.9747C18.6378 16.8422 18.4498 16.7701 18.2555 16.7736C18.0612 16.777 17.8758 16.8557 17.7384 16.9931C17.601 17.1305 17.5223 17.3159 17.5188 17.5102C17.5154 17.7045 17.5875 17.8926 17.72 18.0347L19.44 19.7547H12.75Z" fill="#788BA5"/>
</g>
<defs>
<clipPath id="clip0_2077_160">
<rect width="20" height="20" fill="white" transform="translate(10 10.5049)"/>
</clipPath>
</defs>
</svg>
